<?xml version="1.0" encoding="UTF-8"?>
<!DOCTYPE svg PUBLIC "-//W3C//DTD SVG 1.1//EN" "http://www.w3.org/Graphics/SVG/1.1/DTD/svg11.dtd">
<!-- Creator: CorelDRAW 2017 -->
<svg xmlns="http://www.w3.org/2000/svg" xml:space="preserve" width="234px" height="234px" version="1.1" style="shape-rendering:geometricPrecision; text-rendering:geometricPrecision; image-rendering:optimizeQuality; fill-rule:evenodd; clip-rule:evenodd"
viewBox="0 0 1372000 1372000"
 xmlns:xlink="http://www.w3.org/1999/xlink">
 <defs>
  <style type="text/css">
   <![CDATA[
    .fil0 {fill:black}
    .fil1 {fill:#B8B8B8}
   ]]>
  </style>
 </defs>
 <rect class="fil0" x="-18958000" y="-15939000" width="14515000" height="20529000"/>
 <g id="Слой_x0020_1">
  <metadata id="CorelCorpID_0Corel-Layer"/>
  <path class="fil1" d="M686000 124000c184000,0 205000,0 278000,3000 187000,9000 272000,97000 281000,281000 3000,72000 6000,97000 6000,278000 0,184000 -3000,205000 -6000,278000 -9000,184000 -94000,272000 -281000,281000 -73000,3000 -94000,6000 -278000,6000 -181000,0 -206000,-3000 -278000,-6000 -184000,-9000 -272000,-97000 -281000,-281000 -3000,-73000 -3000,-94000 -3000,-278000 0,-181000 0,-206000 3000,-278000 9000,-184000 97000,-272000 281000,-281000 72000,-3000 97000,-3000 278000,-3000l0 0zm0 -124000c-184000,0 -209000,0 -281000,3000 -251000,12000 -390000,151000 -402000,402000 -3000,72000 -3000,97000 -3000,281000 0,187000 0,211000 3000,284000 12000,248000 151000,387000 402000,399000 72000,3000 97000,3000 281000,3000 187000,0 211000,0 284000,-3000 248000,-12000 387000,-148000 399000,-399000 3000,-73000 3000,-97000 3000,-284000 0,-184000 0,-209000 -3000,-281000 -12000,-251000 -148000,-390000 -399000,-402000 -73000,-3000 -97000,-3000 -284000,-3000l0 0zm0 335000c-194000,0 -351000,157000 -351000,351000 0,196000 157000,353000 351000,353000 196000,0 353000,-157000 353000,-353000 0,-194000 -157000,-351000 -353000,-351000zm0 580000c-127000,0 -230000,-102000 -230000,-229000 0,-127000 103000,-230000 230000,-230000 127000,0 229000,103000 229000,230000 0,127000 -102000,229000 -229000,229000zm368000 -676000c-48000,0 -84000,36000 -84000,81000 0,46000 36000,82000 84000,82000 46000,0 82000,-36000 82000,-82000 0,-45000 -36000,-81000 -82000,-81000z"/>
 </g>
</svg>
