<?xml version="1.0" encoding="UTF-8"?>
<!DOCTYPE svg PUBLIC "-//W3C//DTD SVG 1.1//EN" "http://www.w3.org/Graphics/SVG/1.1/DTD/svg11.dtd">
<!-- Creator: CorelDRAW 2017 -->
<svg xmlns="http://www.w3.org/2000/svg" xml:space="preserve" width="234px" height="225px" version="1.1" style="shape-rendering:geometricPrecision; text-rendering:geometricPrecision; image-rendering:optimizeQuality; fill-rule:evenodd; clip-rule:evenodd"
viewBox="0 0 1209000 1159000"
 xmlns:xlink="http://www.w3.org/1999/xlink">
 <defs>
  <style type="text/css">
   <![CDATA[
    .fil0 {fill:black}
    .fil1 {fill:#B8B8B8}
   ]]>
  </style>
 </defs>
 <rect class="fil0" x="-18099000" y="-14517000" width="12799000" height="18101000"/>
 <g id="Слой_x0020_1">
  <metadata id="CorelCorpID_0Corel-Layer"/>
  <path class="fil1" d="M251000 126000c0,70000 -56000,126000 -125000,126000 -69000,0 -125000,-56000 -125000,-126000 0,-69000 56000,-126000 125000,-126000 69000,0 125000,56000 125000,126000zm1000 227000l-252000 0 0 806000 252000 0 0 -806000zm402000 0l-250000 0 0 806000 250000 0 0 -423000c0,-236000 304000,-255000 304000,0l0 423000 251000 0 0 -510000c0,-398000 -449000,-383000 -555000,-188000l0 -108000 0 0z"/>
 </g>
</svg>
