<?xml version="1.0" encoding="UTF-8"?>
<!DOCTYPE svg PUBLIC "-//W3C//DTD SVG 1.1//EN" "http://www.w3.org/Graphics/SVG/1.1/DTD/svg11.dtd">
<!-- Creator: CorelDRAW 2017 -->
<svg xmlns="http://www.w3.org/2000/svg" xml:space="preserve" width="75px" height="72px" version="1.1" style="shape-rendering:geometricPrecision; text-rendering:geometricPrecision; image-rendering:optimizeQuality; fill-rule:evenodd; clip-rule:evenodd"
viewBox="0 0 8968000 8594000"
 xmlns:xlink="http://www.w3.org/1999/xlink">
 <defs>
  <style type="text/css">
   <![CDATA[
    .fil0 {fill:white}
   ]]>
  </style>
 </defs>
 <g id="Слой_x0020_1">
  <metadata id="CorelCorpID_0Corel-Layer"/>
  <path class="fil0" d="M1861000 934000c0,516000 -415000,934000 -927000,934000 -512000,0 -927000,-418000 -927000,-934000 0,-515000 415000,-934000 927000,-934000 512000,0 927000,418000 927000,934000zm7000 1682000l-1868000 0 0 5978000 1868000 0 0 -5978000zm2983000 0l-1856000 0 0 5978000 1856000 0 0 -3138000c0,-1745000 2253000,-1888000 2253000,0l0 3138000 1864000 0 0 -3785000c0,-2945000 -3334000,-2837000 -4117000,-1388000l0 -805000 0 0z"/>
 </g>
</svg>
