<?xml version="1.0" encoding="UTF-8"?>
<!DOCTYPE svg PUBLIC "-//W3C//DTD SVG 1.1//EN" "http://www.w3.org/Graphics/SVG/1.1/DTD/svg11.dtd">
<!-- Creator: CorelDRAW 2017 -->
<svg xmlns="http://www.w3.org/2000/svg" xml:space="preserve" width="75px" height="63px" version="1.1" style="shape-rendering:geometricPrecision; text-rendering:geometricPrecision; image-rendering:optimizeQuality; fill-rule:evenodd; clip-rule:evenodd"
viewBox="0 0 455000 379000"
 xmlns:xlink="http://www.w3.org/1999/xlink"
 xmlns:serif="http://www.serif.com/">
 <defs>
  <style type="text/css">
   <![CDATA[
    .fil0 {fill:white}
   ]]>
  </style>
 </defs>
 <g id="Слой_x0020_1">
  <metadata id="CorelCorpID_0Corel-Layer"/>
  <g id="_2133080113696">
   <path id="telegram-1" class="fil0" d="M349000 375000c6000,4000 14000,6000 21000,3000 7000,-3000 12000,-9000 13000,-16000 17000,-78000 57000,-274000 72000,-344000 1000,-5000 -1000,-11000 -5000,-14000 -4000,-4000 -10000,-5000 -15000,-3000 -80000,29000 -325000,121000 -425000,158000 -6000,3000 -10000,9000 -10000,15000 0,7000 5000,13000 11000,15000 45000,13000 104000,32000 104000,32000 0,0 28000,83000 42000,125000 2000,6000 6000,10000 11000,11000 6000,2000 12000,0 16000,-4000 23000,-21000 58000,-55000 58000,-55000 0,0 68000,50000 107000,77000l0 0zm-209000 -164000l32000 105000 7000 -67000c0,0 123000,-111000 193000,-174000 2000,-2000 2000,-5000 1000,-7000 -2000,-2000 -5000,-3000 -8000,-1000 -81000,51000 -225000,144000 -225000,144000l0 0z"/>
  </g>
 </g>
</svg>
