<?xml version="1.0" encoding="UTF-8"?>
<!DOCTYPE svg PUBLIC "-//W3C//DTD SVG 1.1//EN" "http://www.w3.org/Graphics/SVG/1.1/DTD/svg11.dtd">
<!-- Creator: CorelDRAW 2017 -->
<svg xmlns="http://www.w3.org/2000/svg" xml:space="preserve" width="100%" height="100%" version="1.1" style="shape-rendering:geometricPrecision; text-rendering:geometricPrecision; image-rendering:optimizeQuality; fill-rule:evenodd; clip-rule:evenodd"
viewBox="0 0 198546 165484"
 xmlns:xlink="http://www.w3.org/1999/xlink"
 xmlns:serif="http://www.serif.com/">
 <defs>
  <style type="text/css">
   <![CDATA[
    .fil0 {fill:#B8B8B8}
   ]]>
  </style>
 </defs>
 <g id="Слой_x0020_1">
  <metadata id="CorelCorpID_0Corel-Layer"/>
  <g id="_1842878122592">
   <g id="_2133080113696">
    <path id="telegram-1" class="fil0" d="M152205 163545c2617,1745 6106,2617 9159,1308 3053,-1308 5234,-3925 5670,-6978 7414,-34017 24859,-119497 31400,-150024 436,-2181 -436,-4797 -2181,-6106 -1745,-1745 -4360,-2181 -6541,-1308 -34890,12648 -141739,52770 -185351,68907 -2617,1308 -4361,3925 -4361,6542 0,3053 2181,5670 4797,6542 19626,5669 45356,13955 45356,13955 0,0 12212,36198 18317,54515 872,2617 2617,4361 4797,4797 2617,872 5234,0 6978,-1745 10030,-9159 25294,-23986 25294,-23986 0,0 29657,21805 46665,33581l0 0 1 0zm-91148 -71523l13956 45793 3053 -29220c0,0 53643,-48409 84170,-75885 872,-872 872,-2181 436,-3053 -872,-872 -2181,-1308 -3489,-436 -35325,22242 -98126,62801 -98126,62801l0 0z"/>
   </g>
  </g>
 </g>
</svg>
