<?xml version="1.0" encoding="UTF-8"?>
<!DOCTYPE svg PUBLIC "-//W3C//DTD SVG 1.1//EN" "http://www.w3.org/Graphics/SVG/1.1/DTD/svg11.dtd">
<!-- Creator: CorelDRAW 2017 -->
<svg xmlns="http://www.w3.org/2000/svg" xml:space="preserve" width="313px" height="255px" version="1.1" style="shape-rendering:geometricPrecision; text-rendering:geometricPrecision; image-rendering:optimizeQuality; fill-rule:evenodd; clip-rule:evenodd"
viewBox="0 0 209000 170000"
 xmlns:xlink="http://www.w3.org/1999/xlink">
 <defs>
  <style type="text/css">
   <![CDATA[
    .fil0 {fill:#B8B8B8}
   ]]>
  </style>
 </defs>
 <g id="Слой_x0020_1">
  <metadata id="CorelCorpID_0Corel-Layer"/>
  <g id="_1842880359712">
   <g id="surface1">
    <path class="fil0" d="M209000 20000c-7000,4000 -16000,6000 -24000,7000 9000,-5000 15000,-14000 19000,-24000 -9000,5000 -18000,9000 -28000,11000 -8000,-9000 -19000,-14000 -31000,-14000 -24000,0 -43000,19000 -43000,43000 0,3000 0,7000 1000,10000 -36000,-2000 -67000,-19000 -88000,-45000 -4000,6000 -6000,14000 -6000,21000 0,15000 7000,29000 19000,36000 -7000,0 -14000,-2000 -20000,-5000 0,0 0,0 0,0 0,21000 15000,39000 35000,43000 -4000,1000 -8000,1000 -11000,1000 -3000,0 -6000,0 -9000,-1000 6000,17000 22000,30000 41000,30000 -15000,12000 -34000,18000 -54000,18000 -3000,0 -7000,0 -10000,0 19000,12000 42000,19000 66000,19000 79000,0 122000,-65000 122000,-122000 0,-2000 0,-4000 0,-6000 8000,-6000 16000,-13000 21000,-22000z"/>
   </g>
  </g>
 </g>
</svg>
