<?xml version="1.0" encoding="UTF-8"?>
<!DOCTYPE svg PUBLIC "-//W3C//DTD SVG 1.1//EN" "http://www.w3.org/Graphics/SVG/1.1/DTD/svg11.dtd">
<!-- Creator: CorelDRAW 2017 -->
<svg xmlns="http://www.w3.org/2000/svg" xml:space="preserve" width="1600px" height="913px" version="1.1" style="shape-rendering:geometricPrecision; text-rendering:geometricPrecision; image-rendering:optimizeQuality; fill-rule:evenodd; clip-rule:evenodd"
viewBox="0 0 142048000 81045000"
 xmlns:xlink="http://www.w3.org/1999/xlink">
 <defs>
  <style type="text/css">
   <![CDATA[
    .fil0 {fill:#B8B8B8}
   ]]>
  </style>
 </defs>
 <g id="Слой_x0020_1">
  <metadata id="CorelCorpID_0Corel-Layer"/>
  <g id="_1842755746992">
   <g>
    <path class="fil0" d="M141295000 73192000c-172000,-370000 -333000,-678000 -481000,-924000 -2465000,-4439000 -7175000,-9887000 -14127000,-16346000l-146000 -148000 -74000 -73000 -74000 -74000 -75000 0c-3155000,-3008000 -5153000,-5030000 -5990000,-6066000 -1531000,-1972000 -1874000,-3968000 -1037000,-5991000 591000,-1529000 2812000,-4756000 6656000,-9688000 2023000,-2613000 3624000,-4708000 4807000,-6286000 8531000,-11341000 12229000,-18588000 11094000,-21744000l-440000 -737000c-296000,-444000 -1060000,-850000 -2292000,-1221000 -1234000,-369000 -2811000,-430000 -4734000,-184000l-21300000 147000c-345000,-122000 -838000,-111000 -1479000,37000 -642000,148000 -962000,223000 -962000,223000l-371000 185000 -294000 223000c-247000,147000 -518000,405000 -814000,775000 -295000,369000 -541000,802000 -738000,1295000 -2319000,5966000 -4955000,11512000 -7914000,16640000 -1825000,3057000 -3500000,5707000 -5030000,7951000 -1529000,2243000 -2811000,3895000 -3845000,4954000 -1036000,1060000 -1972000,1910000 -2811000,2551000 -839000,642000 -1479000,914000 -1922000,814000 -445000,-99000 -863000,-197000 -1259000,-296000 -690000,-444000 -1245000,-1048000 -1663000,-1812000 -420000,-764000 -703000,-1726000 -851000,-2884000 -147000,-1160000 -234000,-2157000 -259000,-2996000 -23000,-837000 -12000,-2022000 38000,-3550000 51000,-1529000 74000,-2564000 74000,-3106000 0,-1874000 36000,-3908000 110000,-6102000 74000,-2194000 135000,-3932000 185000,-5213000 50000,-1282000 74000,-2639000 74000,-4068000 0,-1430000 -87000,-2552000 -259000,-3366000 -170000,-813000 -431000,-1602000 -775000,-2367000 -346000,-764000 -852000,-1355000 -1516000,-1775000 -665000,-419000 -1493000,-751000 -2477000,-998000 -2614000,-592000 -5942000,-912000 -9986000,-961000 -9170000,-99000 -15063000,493000 -17676000,1775000 -1035000,542000 -1972000,1282000 -2810000,2218000 -888000,1086000 -1011000,1678000 -371000,1775000 2959000,443000 5054000,1504000 6287000,3180000l444000 888000c345000,641000 690000,1775000 1036000,3402000 345000,1627000 567000,3427000 665000,5398000 246000,3600000 246000,6681000 0,9245000 -247000,2564000 -480000,4561000 -703000,5991000 -222000,1430000 -555000,2588000 -998000,3476000 -444000,887000 -740000,1430000 -888000,1626000 -148000,197000 -271000,321000 -369000,370000 -641000,246000 -1308000,371000 -1998000,371000 -690000,0 -1528000,-346000 -2514000,-1037000 -986000,-690000 -2009000,-1639000 -3069000,-2847000 -1060000,-1208000 -2256000,-2897000 -3588000,-5066000 -1330000,-2169000 -2711000,-4733000 -4141000,-7692000l-1183000 -2145000c-739000,-1380000 -1750000,-3390000 -3032000,-6027000 -1282000,-2638000 -2416000,-5191000 -3402000,-7656000 -394000,-1035000 -986000,-1823000 -1775000,-2366000l-370000 -222000c-246000,-197000 -641000,-406000 -1183000,-629000 -542000,-223000 -1109000,-382000 -1701000,-480000l-20265000 147000c-2070000,0 -3475000,469000 -4215000,1406000l-296000 443000c-148000,247000 -223000,641000 -223000,1184000 0,542000 148000,1208000 444000,1996000 2958000,6953000 6175000,13658000 9651000,20117000 3476000,6459000 6496000,11662000 9060000,15604000 2563000,3945000 5177000,7668000 7839000,11168000 2663000,3501000 4425000,5745000 5288000,6730000 863000,988000 1541000,1726000 2034000,2219000l1850000 1775000c1183000,1183000 2921000,2601000 5213000,4252000 2294000,1653000 4832000,3279000 7618000,4883000 2787000,1601000 6028000,2908000 9726000,3918000 3698000,1012000 7297000,1418000 10798000,1222000l8506000 0c1725000,-149000 3032000,-691000 3920000,-1628000l294000 -370000c198000,-295000 383000,-752000 554000,-1367000 173000,-616000 259000,-1295000 259000,-2034000 -50000,-2119000 111000,-4030000 480000,-5731000 368000,-1700000 789000,-2982000 1259000,-3846000 469000,-862000 999000,-1590000 1589000,-2180000 591000,-592000 1012000,-950000 1259000,-1073000 246000,-124000 442000,-208000 590000,-259000 1183000,-394000 2576000,-12000 4180000,1147000 1603000,1159000 3106000,2590000 4512000,4290000 1405000,1702000 3094000,3611000 5066000,5731000 1973000,2121000 3698000,3697000 5177000,4734000l1478000 887000c988000,592000 2270000,1135000 3848000,1628000 1575000,493000 2955000,616000 4140000,370000l18933000 -296000c1873000,0 3330000,-310000 4363000,-925000 1036000,-616000 1651000,-1295000 1850000,-2034000 197000,-739000 208000,-1578000 37000,-2516000 -175000,-935000 -348000,-1589000 -520000,-1959000z"/>
   </g>
   <g>
   </g>
   <g>
   </g>
   <g>
   </g>
   <g>
   </g>
   <g>
   </g>
   <g>
   </g>
   <g>
   </g>
   <g>
   </g>
   <g>
   </g>
   <g>
   </g>
   <g>
   </g>
   <g>
   </g>
   <g>
   </g>
   <g>
   </g>
   <g>
   </g>
  </g>
 </g>
</svg>
